# xmcd
#
# Track frame offsets:
#	183
#	14573
#	26470
#	38425
#	51980
#	63148
#	79973
#	88458
#	98848
#	112275
#	123330
#	134135
#	144645
#	163168
#	173150
#	186538
#
# Disc length: 2665 seconds
#
# Revision: 0
# Processed by: cddbd v1.4PL0 Copyright (c) Steve Scherf et al.
# Submitted via: EasyCDDAExtractor 4.6.9.1
#
DISCID=ed0a6710
DTITLE=Freddy Quinn - Great Country and Western Hits
DYEAR=1993
DGENRE=Country
TTITLE0=Two Places At Once
TTITLE1=Tennessee Teardrops
TTITLE2=Old Smoky
TTITLE3=Green Green Grass Of Home
TTITLE4=Jambalaya
TTITLE5=Help Me Make It Through The Night
TTITLE6=Oh, Susanna
TTITLE7=Carry Me Back To Old Virginny
TTITLE8=It´s Country Tima
TTITLE9=Some Broken Hearts Never Mend
TTITLE10=Tom Dooley
TTITLE11=Yellow Rose Of Texas
TTITLE12=Yesterday´s Memories
TTITLE13=Oh, My Darling Clementine
TTITLE14=Home On The Range
TTITLE15=Oh, Lonesome Me
EXTD=
EXTT0=
EXTT1=
EXTT2=
EXTT3=
EXTT4=
EXTT5=
EXTT6=
EXTT7=
EXTT8=
EXTT9=
EXTT10=
EXTT11=
EXTT12=
EXTT13=
EXTT14=
EXTT15=
PLAYORDER=
